<svg xmlns="http://www.w3.org/2000/svg" width="40" height="26" viewBox="0 0 40 26">
    <g fill="none" fill-rule="evenodd">
        <path fill="#FD6400" d="M.254 25.263c-.14 0-.254-.113-.254-.252V7.579C0 3.411 3.43 0 7.624 0h32.122c.139 0 .254.114.254.253v17.43c0 4.17-3.431 7.58-7.623 7.58H.254z"/>
        <path fill="#FFF" d="M25.076 6.316H21.99c-1.741 0-3.153 1.378-3.167 3.082V6.912c0-.341-.261-.596-.58-.596H15.666c-.317 0-.578.255-.578.596v12.52c0 .313.26.568.577.568H18.243c.319 0 .578-.255.579-.568v-7.75c0-.02.002-.039.005-.057.127-.85.503-1.623 1.102-2.23.827-.835 1.98-1.295 3.25-1.295.088 0 .16.065.167.151.007.087-.055.162-.142.174-.018.003-1.756.27-2.753 1.64-.333.46-.548.99-.644 1.587h2.288c1.75 0 3.168-1.391 3.168-3.108V6.499c0-.1-.083-.183-.187-.183"/>
    </g>
</svg>
